<?xml version="1.0" encoding="UTF-8"?>
<svg version="1.1" xmlns="http://www.w3.org/2000/svg" width="512" height="512">
<path d="M0 0 C1.05254927 -0.00445784 2.10509854 -0.00891569 3.18954325 -0.01350862 C4.34477283 -0.01332426 5.50000241 -0.01313989 6.69023895 -0.01294994 C7.91842268 -0.01662663 9.1466064 -0.02030332 10.41200781 -0.02409142 C13.82309181 -0.03321165 17.23412771 -0.03782651 20.64521933 -0.04048073 C24.32367543 -0.04438702 28.00211765 -0.05396524 31.68056488 -0.0626936 C40.56594143 -0.08245048 49.4513191 -0.09252395 58.33671212 -0.10142139 C62.52317393 -0.1058062 66.70963447 -0.11117257 70.89609528 -0.11641026 C84.81719195 -0.13342296 98.73828784 -0.14791594 112.65939331 -0.155159 C116.27152253 -0.15706883 119.88365175 -0.15898917 123.49578094 -0.16094494 C124.39353687 -0.16142868 125.2912928 -0.16191242 126.21625346 -0.16241082 C140.75114984 -0.17070665 155.2859638 -0.19603582 169.82082421 -0.22852562 C184.75073427 -0.26162572 199.6806025 -0.27961049 214.61054945 -0.28280324 C222.99015634 -0.28496577 231.3696431 -0.29367663 239.74921417 -0.31926441 C246.88758133 -0.3410119 254.02579918 -0.34900205 261.16419572 -0.33929763 C264.80320573 -0.33476438 268.44190795 -0.33658161 272.0808754 -0.35605907 C276.03526213 -0.37704094 279.98922902 -0.3666684 283.94365692 -0.35352612 C285.08104073 -0.36449536 286.21842454 -0.37546461 287.39027452 -0.38676625 C300.55252149 -0.28154672 310.07019041 3.84007617 319.57488251 12.69672108 C332.3235781 26.50780797 333.12089847 41.29398725 333.14373016 59.28558826 C333.15304701 60.98192278 333.16321824 62.67825278 333.17417145 64.37457752 C333.20128769 68.94395961 333.21656585 73.51331119 333.22959948 78.08275223 C333.24531112 82.87136712 333.2720754 87.65992044 333.29763031 92.4484911 C333.34427665 101.50038939 333.3810889 110.55229945 333.41430318 119.60425591 C333.45262495 129.91634721 333.50200854 140.22837644 333.55228734 150.54041529 C333.65539663 171.73830463 333.74472485 192.93623333 333.82488251 214.13422108 C334.92187469 214.67111561 336.01886688 215.20801014 337.14910126 215.7611742 C338.60363504 216.47905701 340.0580562 217.19716805 341.51238251 217.91547108 C342.23361298 218.26770741 342.95484344 218.61994373 343.69792938 218.98285389 C349.31612781 221.76629923 354.16389512 224.91401117 358.82488251 229.13422108 C359.49648407 229.7142992 360.16808563 230.29437733 360.86003876 230.89203358 C373.80698791 242.8161987 381.1283474 260.47556948 382.01684952 277.89858341 C382.12302639 282.35523322 382.11855276 286.81181666 382.11540985 291.26947498 C382.12140511 292.97748575 382.12821292 294.68549383 382.13576508 296.39349842 C382.15333314 301.00542633 382.15811662 305.61727989 382.15939665 310.22923803 C382.1608243 313.11948277 382.16510553 316.00970897 382.17039108 318.89994907 C382.18886263 329.00848801 382.19706551 339.11697442 382.19548798 349.22552967 C382.19428813 358.60665213 382.21536714 367.98754396 382.2469753 377.36860812 C382.27324256 385.45651302 382.28385088 393.54434309 382.28257716 401.63229024 C382.28207049 406.44779139 382.28758857 411.26308741 382.30893326 416.07854557 C382.32849218 420.6144789 382.32832133 425.15001517 382.31389999 429.68596363 C382.31183231 431.33654717 382.31638857 432.98715675 382.32862091 434.63769627 C382.4845919 457.16972294 376.72038809 476.5708371 360.82488251 493.13422108 C355.47814632 498.3405001 349.54283176 502.04802715 342.94988251 505.44672108 C342.01486908 505.93531605 342.01486908 505.93531605 341.06096649 506.43378162 C330.28461996 511.71415022 319.40642494 512.57480482 307.56780243 512.515172 C306.05631772 512.51863535 304.54483554 512.52340443 303.03335857 512.52935374 C298.91059229 512.54180051 294.78803611 512.53572241 290.66526937 512.52639508 C286.20711739 512.51957883 281.74900034 512.53009854 277.29085541 512.53833485 C268.56945196 512.55164698 259.84812615 512.54880569 251.12671971 512.54009692 C244.03614114 512.53331085 236.94558425 512.53240765 229.85500336 512.53566837 C228.33896587 512.53635792 228.33896587 512.53635792 226.79230136 512.5370614 C224.73884653 512.53802062 222.68539172 512.53899326 220.63193691 512.53997917 C201.39459362 512.54852569 182.15729328 512.53871053 162.91995704 512.52257808 C146.42763205 512.50917557 129.93537042 512.51150387 113.44304657 512.52533436 C94.27267445 512.54140322 75.10233993 512.54770178 55.93196201 512.53849757 C53.88622857 512.53754196 51.84049512 512.53659885 49.79476166 512.53566837 C48.7883257 512.53520555 47.78188974 512.53474272 46.74495572 512.53426587 C39.66615054 512.5316799 32.58736929 512.53603849 25.50856781 512.54310703 C16.87721386 512.55153675 8.24594171 512.54921098 -0.38540292 512.5332648 C-4.78589773 512.52540188 -9.18625634 512.5222566 -13.58675003 512.53221226 C-17.62091611 512.54120084 -21.65482068 512.53615834 -25.68896329 512.5202796 C-27.14237251 512.51694933 -28.59580416 512.51858601 -30.04919875 512.52590697 C-41.83164257 512.58066906 -52.55419439 511.05874479 -63.11261749 505.63422108 C-63.78301056 505.29092762 -64.45340363 504.94763416 -65.14411163 504.59393787 C-82.50324842 495.29887742 -94.02998544 480.08659869 -100.07406807 461.34704304 C-103.10996982 449.07725376 -102.59600484 436.63187135 -102.56330109 424.0736742 C-102.56737143 421.44410961 -102.57271589 418.81454674 -102.57923126 416.18498707 C-102.59250137 409.81203915 -102.58972109 403.43919783 -102.58099334 397.06624591 C-102.57419053 391.88219484 -102.57331124 386.69817342 -102.57656479 381.51411915 C-102.57702449 380.77348595 -102.57748419 380.03285276 -102.57795782 379.26977614 C-102.57891709 377.76472484 -102.57988973 376.25967356 -102.58087559 374.75462228 C-102.58940979 360.67480124 -102.5796264 346.59503901 -102.56347449 332.51522762 C-102.5500731 320.46029888 -102.55240175 308.40545684 -102.56623077 296.35052967 C-102.58232153 282.31765204 -102.588586 268.28482582 -102.57939398 254.25194025 C-102.57843844 252.75273451 -102.57749532 251.25352876 -102.57656479 249.75432301 C-102.57610196 249.01687714 -102.57563914 248.27943128 -102.57516228 247.51963857 C-102.57258286 242.34782354 -102.57692066 237.17604139 -102.58400345 232.00423145 C-102.59334477 225.03063034 -102.58659942 218.05719477 -102.56932068 211.08360958 C-102.56537095 208.53196514 -102.56646376 205.98030687 -102.57310867 203.42866802 C-102.63277682 178.17854165 -99.24975857 157.09477709 -81.48761749 137.88422108 C-71.6816535 128.68140169 -58.48062643 120.83532401 -44.96710968 119.57953358 C-44.06901581 119.49461658 -43.17092194 119.40969959 -42.2456131 119.32220936 C-41.56234955 119.26017323 -40.879086 119.19813709 -40.17511749 119.13422108 C-40.18399994 118.10628941 -40.19288239 117.07835773 -40.202034 116.01927662 C-40.28339294 106.2953942 -40.34321339 96.57158154 -40.38236618 86.847435 C-40.40317229 81.84905379 -40.43136144 76.85094907 -40.47687531 71.85272694 C-40.52058321 67.02217705 -40.54430697 62.19189182 -40.55462646 57.36115932 C-40.5619733 55.52530029 -40.57631916 53.68945448 -40.59803772 51.85370922 C-40.75989344 37.59593146 -39.22259184 26.71322718 -30.17511749 15.13422108 C-29.69687531 14.5180492 -29.21863312 13.90187733 -28.72589874 13.26703358 C-21.88089467 5.50821284 -10.33690599 0.02033063 0 0 Z " fill="#DD636E" transform="translate(116.17511749267578,-0.13422107696533203)"/>
<path d="M0 0 C1.05254927 -0.00445784 2.10509854 -0.00891569 3.18954325 -0.01350862 C4.34477283 -0.01332426 5.50000241 -0.01313989 6.69023895 -0.01294994 C7.91842268 -0.01662663 9.1466064 -0.02030332 10.41200781 -0.02409142 C13.82309181 -0.03321165 17.23412771 -0.03782651 20.64521933 -0.04048073 C24.32367543 -0.04438702 28.00211765 -0.05396524 31.68056488 -0.0626936 C40.56594143 -0.08245048 49.4513191 -0.09252395 58.33671212 -0.10142139 C62.52317393 -0.1058062 66.70963447 -0.11117257 70.89609528 -0.11641026 C84.81719195 -0.13342296 98.73828784 -0.14791594 112.65939331 -0.155159 C116.27152253 -0.15706883 119.88365175 -0.15898917 123.49578094 -0.16094494 C124.39353687 -0.16142868 125.2912928 -0.16191242 126.21625346 -0.16241082 C140.75114984 -0.17070665 155.2859638 -0.19603582 169.82082421 -0.22852562 C184.75073427 -0.26162572 199.6806025 -0.27961049 214.61054945 -0.28280324 C222.99015634 -0.28496577 231.3696431 -0.29367663 239.74921417 -0.31926441 C246.88758133 -0.3410119 254.02579918 -0.34900205 261.16419572 -0.33929763 C264.80320573 -0.33476438 268.44190795 -0.33658161 272.0808754 -0.35605907 C276.03526213 -0.37704094 279.98922902 -0.3666684 283.94365692 -0.35352612 C285.08104073 -0.36449536 286.21842454 -0.37546461 287.39027452 -0.38676625 C300.55252149 -0.28154672 310.07019041 3.84007617 319.57488251 12.69672108 C332.33560205 26.52083391 333.13674046 41.27679457 333.05193329 59.28558826 C333.05136801 60.98191795 333.05168801 62.67824812 333.0528183 64.37457752 C333.05338825 68.94401284 333.04169233 73.51334152 333.02767038 78.08275223 C333.01510294 82.87132624 333.01398781 87.65990314 333.01161957 92.4484911 C333.00542238 101.50043608 332.98903557 110.55233232 332.96892059 119.60425591 C332.94650655 129.91630212 332.93555435 140.22835075 332.92552972 150.54041529 C332.90466765 171.73837768 332.86952618 192.9362963 332.82488251 214.13422108 C328.26128601 213.7026536 323.7171726 213.26990939 319.18416595 212.58058643 C315.46646034 212.08659567 311.81840599 211.98948186 308.07634735 211.99237537 C307.33542847 211.98890095 306.59450958 211.98542652 305.83113861 211.98184681 C304.23304608 211.97453613 302.63494371 211.96916599 301.03683853 211.96555614 C298.49545314 211.95832497 295.95425361 211.94260836 293.41292572 211.92421436 C286.19073333 211.87206604 278.96864574 211.82384554 271.74626923 211.80829334 C267.31592955 211.79813238 262.88606448 211.76860744 258.45591354 211.72697353 C256.78087858 211.71477571 255.10577626 211.70952143 253.43069839 211.71177197 C233.88552667 211.7315656 217.6527481 206.27415101 202.82488251 193.13422108 C202.22289032 192.62633045 201.62089813 192.11843983 201.00066376 191.59515858 C192.4323122 183.80574807 186.73292538 172.76911497 181.04509735 162.83197498 C169.70368649 143.09224103 156.18126601 128.86716868 133.95769501 121.67718983 C128.89132802 120.38740043 124.01977029 120.00363425 118.80135345 119.97600269 C118.11835721 119.97106472 117.43536097 119.96612674 116.73166788 119.96103913 C114.45626386 119.94575159 112.18088787 119.9373274 109.90544891 119.92889881 C108.26911424 119.9193134 106.63278201 119.90930293 104.99645233 119.89890003 C100.56308038 119.87191674 96.12969786 119.85087166 91.69628954 119.83089805 C87.05980291 119.80899784 82.42334863 119.78162892 77.78688812 119.7548418 C69.01102896 119.70496942 60.23515179 119.66001039 51.45925748 119.61681944 C41.46654225 119.56740041 31.47385948 119.5124996 21.48117566 119.45713985 C0.9291082 119.34340354 -19.62299026 119.23654637 -40.17511749 119.13422108 C-40.25482249 109.36017435 -40.33169089 99.58626685 -40.37042999 89.81195545 C-40.39426996 83.82540029 -40.4223634 77.83909164 -40.47687531 71.85272694 C-40.52058321 67.02217705 -40.54430697 62.19189182 -40.55462646 57.36115932 C-40.5619733 55.52530029 -40.57631916 53.68945448 -40.59803772 51.85370922 C-40.75989344 37.59593146 -39.22259184 26.71322718 -30.17511749 15.13422108 C-29.69687531 14.5180492 -29.21863312 13.90187733 -28.72589874 13.26703358 C-21.88089467 5.50821284 -10.33690599 0.02033063 0 0 Z " fill="#F7F5F8" transform="translate(116.17511749267578,-0.13422107696533203)"/>
<path d="M0 0 C6.13621445 2.99139432 10.84171105 7.43395528 15.5625 12.26953125 C16.23925781 12.95053391 16.91601562 13.63153656 17.61328125 14.33317566 C19.7494064 16.48594293 21.87479494 18.64895734 24 20.8125 C25.45633102 22.28389651 26.91335595 23.75460656 28.37109375 25.22460938 C31.92213069 28.80852343 35.46358488 32.40165951 39 36 C41.87108856 34.70044725 43.901704 33.33661818 46.09692383 31.08251953 C46.67465042 30.4949588 47.25237701 29.90739807 47.84761047 29.30203247 C48.46121933 28.66868988 49.07482819 28.03534729 49.70703125 27.3828125 C51.02917252 26.04024211 52.35144221 24.69779818 53.67382812 23.35546875 C55.74327866 21.24262374 57.81018936 19.12737111 59.87426758 17.00927734 C61.87444431 14.96054915 63.88396173 12.92133509 65.89453125 10.8828125 C66.80583549 9.93887131 66.80583549 9.93887131 67.73554993 8.9758606 C72.33414788 4.3249319 76.76660665 0.59877655 83.375 -0.625 C92.22381276 0.90065737 98.82587558 8.37835048 104.875 14.5625 C105.62007812 15.30435547 106.36515625 16.04621094 107.1328125 16.81054688 C116.42685075 26.19652255 116.42685075 26.19652255 116.4375 32.9375 C116.45683594 33.75089844 116.47617187 34.56429687 116.49609375 35.40234375 C115.21007723 42.13620979 109.29406216 46.97243669 104.609375 51.5859375 C103.90476135 52.28772125 103.20014771 52.989505 102.47418213 53.71255493 C100.23746565 55.93813652 97.99387311 58.15663639 95.75 60.375 C94.22610203 61.88885954 92.70265953 63.4031777 91.1796875 64.91796875 C87.45838058 68.61730413 83.73141341 72.31086048 80 76 C83.92111204 80.70603837 88.01132448 85.12960455 92.38671875 89.4140625 C93.58411545 90.59882588 94.78137715 91.7837257 95.97851562 92.96875 C97.83965015 94.80501029 99.70237063 96.63960608 101.56762695 98.47167969 C103.38675482 100.26054832 105.19956276 102.05563543 107.01171875 103.8515625 C107.84614754 104.66580185 107.84614754 104.66580185 108.69743347 105.49649048 C113.07763773 109.84828677 116.40920918 113.77873927 116.75 120.1875 C116.50861737 126.90151314 113.30684886 130.04957436 108.57177734 134.49414062 C106.74271197 136.24649776 104.99221581 138.06311418 103.23828125 139.890625 C101.90993459 141.26146443 100.58050606 142.63125634 99.25 144 C98.29371704 144.9895166 98.29371704 144.9895166 97.31811523 145.99902344 C92.18677565 151.16059084 88.60680088 153.12453877 81.16015625 153.4609375 C74.70596795 152.08373276 69.85207044 146.11586144 65.4140625 141.609375 C64.71227875 140.90476135 64.010495 140.20014771 63.28744507 139.47418213 C61.06186348 137.23746565 58.84336361 134.99387311 56.625 132.75 C55.11114046 131.22610203 53.5968223 129.70265953 52.08203125 128.1796875 C48.38269587 124.45838058 44.68913952 120.73141341 41 117 C38.01800016 118.33750325 35.96572677 119.79839483 33.68774414 122.1328125 C33.06352066 122.76687012 32.43929718 123.40092773 31.79615784 124.05419922 C31.13252731 124.73756348 30.46889679 125.42092773 29.78515625 126.125 C28.36274965 127.5678261 26.94021981 129.01053071 25.51757812 130.453125 C23.28559398 132.72862288 21.05613065 135.00652324 18.8293457 137.28710938 C16.67523571 139.48952207 14.51198168 141.68263214 12.34765625 143.875 C11.68604996 144.55836426 11.02444366 145.24172852 10.3427887 145.94580078 C5.19977804 151.14358799 1.64517899 153.12280506 -5.83984375 153.4609375 C-13.39113618 151.84963098 -19.0810883 144.21359969 -24.25 139 C-25.16007813 138.09765625 -26.07015625 137.1953125 -27.0078125 136.265625 C-28.31105469 134.95851563 -28.31105469 134.95851563 -29.640625 133.625 C-30.42985352 132.83351563 -31.21908203 132.04203125 -32.03222656 131.2265625 C-35.12603843 127.72587214 -36.32210905 124.90481309 -36.5 120.25 C-36.5515625 119.45078125 -36.603125 118.6515625 -36.65625 117.828125 C-34.96937633 110.55850275 -28.01782327 104.73721774 -22.8515625 99.65625 C-22.19417084 99.00168823 -21.53677917 98.34712646 -20.85946655 97.67272949 C-18.78601329 95.61035267 -16.7056716 93.55509155 -14.625 91.5 C-13.20656711 90.09161313 -11.78859402 88.68276302 -10.37109375 87.2734375 C-6.91934876 83.84358627 -3.46141335 80.42009252 0 77 C-3.99505343 72.19860292 -8.18124677 67.7027575 -12.640625 63.33203125 C-13.88815057 62.09713626 -15.13554258 60.86210633 -16.3828125 59.62695312 C-18.32526217 57.70941298 -20.26929663 55.79353169 -22.21582031 53.88012695 C-24.11180992 52.01431161 -26.00155298 50.14234639 -27.890625 48.26953125 C-28.47394592 47.69966995 -29.05726685 47.12980865 -29.65826416 46.54267883 C-33.93396674 42.29367651 -36.26842965 39.30942403 -36.5 33.25 C-36.57734375 32.05117188 -36.57734375 32.05117188 -36.65625 30.828125 C-34.87858264 23.1672252 -27.45558218 17.11757092 -22.0625 11.75 C-21.38509766 11.05648438 -20.70769531 10.36296875 -20.00976562 9.6484375 C-14.25575385 3.88890893 -8.67966472 -1.37047338 0 0 Z " fill="#F7F5F8" transform="translate(216,260)"/>
<path d="M0 0 C0.92515915 0.00141495 1.8503183 0.0028299 2.80351257 0.00428772 C5.74794802 0.0098691 8.69230642 0.0224182 11.63671875 0.03515625 C13.63736869 0.04017366 15.63801983 0.04473614 17.63867188 0.04882812 C22.53388369 0.05983244 27.42903817 0.07708427 32.32421875 0.09765625 C32.32421875 0.42765625 32.32421875 0.75765625 32.32421875 1.09765625 C31.70675781 1.20722656 31.08929688 1.31679687 30.453125 1.4296875 C11.79351527 4.92303909 -4.00461008 13.47641711 -15.48828125 28.84765625 C-24.33328241 42.48369971 -27.98810057 55.52268257 -27.94993591 71.75285339 C-27.95517259 72.87393991 -27.96040927 73.99502643 -27.96580464 75.15008527 C-27.98071781 78.87898368 -27.98150788 82.60774382 -27.98217773 86.33666992 C-27.98980502 89.02166303 -27.99818571 91.70664487 -28.00740051 94.39163208 C-28.03015179 101.66661589 -28.03816014 108.94157035 -28.04322696 116.21658492 C-28.04649491 120.7671748 -28.05302387 125.31775631 -28.06022835 129.86834145 C-28.07977984 142.491808 -28.09619305 155.11526683 -28.09910488 167.7387495 C-28.09929245 168.54493127 -28.09948002 169.35111305 -28.09967327 170.18172457 C-28.1000395 171.81571027 -28.1004032 173.44969597 -28.10076439 175.08368167 C-28.1009472 175.89468244 -28.10113001 176.70568321 -28.10131836 177.54125977 C-28.10149891 178.35326134 -28.10167946 179.16526292 -28.10186548 180.00187061 C-28.10540561 193.15305041 -28.13242442 206.30406632 -28.16981625 219.45518931 C-28.20798434 232.98865205 -28.22726297 246.52203363 -28.22756439 260.05555135 C-28.22814698 267.6415545 -28.23651031 275.22736198 -28.26556206 282.81331444 C-28.29018987 289.27327785 -28.29728248 295.73297418 -28.28231453 302.19297197 C-28.27519221 305.4822615 -28.27857285 308.77092059 -28.29872513 312.06017113 C-28.43530049 335.81191425 -24.81699321 355.32451021 -7.67578125 373.09765625 C4.77595861 384.03383165 18.84036845 390.54257603 35.32421875 392.09765625 C35.32421875 392.42765625 35.32421875 392.75765625 35.32421875 393.09765625 C29.420112 393.17247434 23.51628843 393.22657081 17.61181641 393.26245117 C15.6081867 393.27742767 13.60458914 393.29781606 11.60107422 393.32397461 C-2.4044009 393.50209911 -14.89684491 393.13088662 -27.61328125 386.59765625 C-28.28367432 386.25436279 -28.95406738 385.91106934 -29.64477539 385.55737305 C-47.00391217 376.26231259 -58.5306492 361.05003387 -64.57473183 342.31047821 C-67.61063357 330.04068893 -67.0966686 317.59530653 -67.06396484 305.03710938 C-67.06803518 302.40754479 -67.07337965 299.77798191 -67.07989502 297.14842224 C-67.09316512 290.77547433 -67.09038484 284.40263301 -67.0816571 278.02968109 C-67.07485429 272.84563001 -67.07397499 267.66160859 -67.07722855 262.47755432 C-67.07768825 261.73692113 -67.07814794 260.99628793 -67.07862157 260.23321131 C-67.07958085 258.72816002 -67.08055349 257.22310873 -67.08153935 255.71805745 C-67.09007354 241.63823641 -67.08029015 227.55847418 -67.06413825 213.47866279 C-67.05073686 201.42373405 -67.05306551 189.36889202 -67.06689453 177.31396484 C-67.08298529 163.28108721 -67.08924975 149.24826099 -67.08005774 135.21537542 C-67.07910219 133.71616968 -67.07815908 132.21696393 -67.07722855 130.71775818 C-67.07676572 129.98031231 -67.07630289 129.24286645 -67.07582604 128.48307374 C-67.07324662 123.31125871 -67.07758442 118.13947656 -67.08466721 112.96766663 C-67.09400853 105.99406552 -67.08726318 99.02062994 -67.06998444 92.04704475 C-67.06603471 89.49540031 -67.06712751 86.94374204 -67.07377243 84.3921032 C-67.13344058 59.14197682 -63.75042233 38.05821227 -45.98828125 18.84765625 C-33.23243051 6.87639157 -17.46040017 -0.10092831 0 0 Z " fill="#DA4A54" transform="translate(80.67578125,118.90234375)"/>
<path d="M0 0 C1.29550781 0.00322266 2.59101562 0.00644531 3.92578125 0.00976562 C5.28906317 0.01812027 6.65234442 0.02658521 8.015625 0.03515625 C9.39452965 0.04017457 10.77343604 0.0447369 12.15234375 0.04882812 C15.52348159 0.06061532 18.89453128 0.0770699 22.265625 0.09765625 C22.265625 0.42765625 22.265625 0.75765625 22.265625 1.09765625 C21.65976563 1.18402344 21.05390625 1.27039063 20.4296875 1.359375 C8.97747731 3.27982256 -0.03448638 8.32726386 -7.734375 17.09765625 C-15.25781916 28.33414956 -17.01071264 38.30171674 -17.1484375 51.5703125 C-17.16780365 52.73396835 -17.1871698 53.89762421 -17.2071228 55.09654236 C-17.26652421 58.78434094 -17.31314577 62.4721714 -17.359375 66.16015625 C-17.39759107 68.67253906 -17.43664488 71.18490927 -17.4765625 73.69726562 C-17.57219309 79.83061672 -17.65735416 85.96404473 -17.734375 92.09765625 C-17.01821549 92.09304729 -16.30205599 92.08843832 -15.56419468 92.08368969 C1.93324901 91.97283945 19.4306025 91.89032056 36.92832088 91.83859539 C45.39041259 91.81291089 53.85226864 91.77794927 62.31420898 91.72045898 C69.69728807 91.67032276 77.08019634 91.63829453 84.46344095 91.62721378 C88.36597371 91.62074559 92.26801815 91.60575282 96.17039299 91.56900597 C121.77468759 91.33750785 142.93633346 93.31346652 162.7890625 111.43359375 C171.1457731 120.42298907 177.169123 130.3155722 183.18481445 140.92431641 C188.60981478 150.45248956 194.5209219 158.30083749 202.265625 166.09765625 C203.1623291 167.02384766 203.1623291 167.02384766 204.07714844 167.96875 C207.68956167 171.58885468 212.21073191 173.8669485 216.703125 176.22265625 C217.30471436 176.54782227 217.90630371 176.87298828 218.52612305 177.20800781 C230.87452659 183.37201984 243.91357974 184.68206932 257.46732712 184.61407661 C260.050889 184.60119182 262.63342171 184.61296043 265.21694946 184.63011169 C269.76680867 184.65652916 274.31640541 184.66241771 278.86633301 184.66101074 C286.16614051 184.65876237 293.46562619 184.67317585 300.76530838 184.7165966 C303.29231581 184.7263342 305.81879913 184.71777701 308.34579468 184.707901 C309.91070893 184.71405027 311.47562043 184.72096368 313.04052734 184.72875977 C313.72749695 184.7210405 314.41446655 184.71332123 315.12225342 184.70536804 C321.26185049 184.76787346 324.88612118 186.18380511 331.265625 188.09765625 C331.265625 196.67765625 331.265625 205.25765625 331.265625 214.09765625 C321.265625 213.09765625 321.265625 213.09765625 317.62490845 212.54402161 C313.90720283 212.05003084 310.25914848 211.95291703 306.51708984 211.95581055 C305.77617096 211.95233612 305.03525208 211.94886169 304.2718811 211.94528198 C302.67378857 211.9379713 301.0756862 211.93260117 299.47758102 211.92899132 C296.93619564 211.92176014 294.39499611 211.90604353 291.85366821 211.88764954 C284.63147582 211.83550122 277.40938823 211.78728071 270.18701172 211.77172852 C265.75667204 211.76156755 261.32680697 211.73204261 256.89665604 211.69040871 C255.22162107 211.67821088 253.54651876 211.67295661 251.87144089 211.67520714 C232.32626917 211.69500077 216.0934906 206.23758618 201.265625 193.09765625 C200.66363281 192.58976563 200.06164062 192.081875 199.44140625 191.55859375 C190.87305469 183.76918324 185.17366788 172.73255015 179.48583984 162.79541016 C168.14442898 143.0556762 154.62200851 128.83060385 132.3984375 121.640625 C127.33207051 120.3508356 122.46051278 119.96706942 117.24209595 119.93943787 C116.55909971 119.93449989 115.87610347 119.92956191 115.17241037 119.9244743 C112.89700636 119.90918676 110.62163037 119.90076257 108.34619141 119.89233398 C106.70985673 119.88274857 105.0735245 119.8727381 103.43719482 119.86233521 C99.00382288 119.83535192 94.57044036 119.81430684 90.13703203 119.79433322 C85.5005454 119.77243301 80.86409112 119.74506409 76.22763062 119.71827698 C67.45177145 119.66840459 58.67589429 119.62344556 49.89999998 119.58025461 C39.90728474 119.53083558 29.91460197 119.47593478 19.92191815 119.42057502 C-0.6301493 119.30683872 -21.18224777 119.19998155 -41.734375 119.09765625 C-41.81408 109.32360952 -41.89094839 99.54970202 -41.9296875 89.77539062 C-41.95352747 83.78883546 -41.98162091 77.80252681 -42.03613281 71.81616211 C-42.07984071 66.98561222 -42.10356448 62.15532699 -42.11388397 57.3245945 C-42.12123081 55.48873547 -42.13557667 53.65288965 -42.15729523 51.81714439 C-42.31915095 37.55936663 -40.78184935 26.67666235 -31.734375 15.09765625 C-31.25613281 14.48148438 -30.77789062 13.8653125 -30.28515625 13.23046875 C-22.83186781 4.78215692 -11.0756001 -0.04857719 0 0 Z " fill="#DDD9EB" transform="translate(117.734375,-0.09765625)"/>
</svg>
